<svg xmlns="http://www.w3.org/2000/svg" viewBox="0 0 64 64">
  <defs>
    <linearGradient id="g" x1="0" y1="0" x2="1" y2="1">
      <stop offset="0%" stop-color="#0f2942"/>
      <stop offset="100%" stop-color="#059669"/>
    </linearGradient>
  </defs>
  <path d="M32 4 L56 14 V32 C56 46 45 56 32 60 C19 56 8 46 8 32 V14 Z" fill="url(#g)"/>
  <path d="M32 18 C24 24 22 32 28 40 C30 36 34 32 40 30 C36 38 30 42 24 42 C24 46 28 48 32 48 C40 48 46 42 46 32 C46 24 40 20 32 18 Z" fill="#10b981" opacity="0.95"/>
  <circle cx="32" cy="32" r="2" fill="#fff"/>
</svg>
